{
    "asset" : {
        "generator" : "Khronos glTF Blender I/O v1.8.19",
        "version" : "2.0"
    },
    "extensionsUsed" : [
        "KHR_materials_clearcoat",
        "KHR_materials_transmission"
    ],
    "scene" : 0,
    "scenes" : [
        {
            "name" : "Scene",
            "nodes" : [
                0,
                1,
                2,
                3,
                4,
                5
            ]
        }
    ],
    "nodes" : [
        {
            "mesh" : 0,
            "name" : "Suzanne",
            "translation" : [
                0,
                0.25,
                0
            ]
        },
        {
            "mesh" : 1,
            "name" : "Eye Inner",
            "rotation" : [
                -0.7071067690849304,
                0,
                0,
                0.7071068286895752
            ],
            "scale" : [
                3.0045928955078125,
                2.4101905822753906,
                3.0045928955078125
            ],
            "translation" : [
                0.04791918024420738,
                0.2884664535522461,
                0.09088413417339325
            ]
        },
        {
            "mesh" : 2,
            "name" : "Eye Outer",
            "rotation" : [
                -0.7071067690849304,
                0,
                0,
                0.7071068286895752
            ],
            "scale" : [
                3.0045928955078125,
                2.4101905822753906,
                3.0045928955078125
            ],
            "translation" : [
                0.04791918024420738,
                0.2884664535522461,
                0.08815577626228333
            ]
        },
        {
            "name" : "BezierCircle",
            "rotation" : [
                0,
                -0.38875487446784973,
                0,
                0.9213412404060364
            ],
            "scale" : [
                155.82861328125,
                155.82861328125,
                155.82861328125
            ],
            "translation" : [
                0,
                0.425593763589859,
                0
            ]
        },
        {
            "name" : "Front",
            "rotation" : [
                0.7071068286895752,
                0,
                0,
                0.7071068286895752
            ],
            "translation" : [
                0,
                0,
                -0.23999999463558197
            ]
        },
        {
            "name" : "Side",
            "rotation" : [
                0.5,
                0.5,
                -0.5,
                0.4999999701976776
            ],
            "translation" : [
                -0.29999998211860657,
                0,
                0
            ]
        }
    ],
    "materials" : [
        {
            "doubleSided" : true,
            "name" : "Skin",
            "pbrMetallicRoughness" : {
                "baseColorFactor" : [
                    0.9999999403953552,
                    0.7379105687141418,
                    0.5520114898681641,
                    1
                ],
                "metallicFactor" : 0,
                "roughnessFactor" : 0.699999988079071
            }
        },
        {
            "doubleSided" : true,
            "extensions" : {
                "KHR_materials_clearcoat" : {
                    "clearcoatFactor" : 1,
                    "clearcoatRoughnessFactor" : 0.029999999329447746
                }
            },
            "name" : "White",
            "pbrMetallicRoughness" : {
                "metallicFactor" : 0,
                "roughnessFactor" : 0.5
            }
        },
        {
            "doubleSided" : true,
            "name" : "Pupil",
            "pbrMetallicRoughness" : {
                "baseColorFactor" : [
                    0,
                    0,
                    0,
                    1
                ],
                "metallicFactor" : 0,
                "roughnessFactor" : 0.5
            }
        },
        {
            "doubleSided" : true,
            "name" : "Iris",
            "pbrMetallicRoughness" : {
                "baseColorFactor" : [
                    0.0012244959361851215,
                    0.08812074363231659,
                    0.3172932267189026,
                    1
                ],
                "metallicFactor" : 0,
                "roughnessFactor" : 0.5
            }
        },
        {
            "alphaMode" : "BLEND",
            "doubleSided" : true,
            "extensions" : {
                "KHR_materials_transmission" : {
                    "transmissionFactor" : 1
                }
            },
            "name" : "Lens",
            "pbrMetallicRoughness" : {
                "baseColorFactor" : [
                    0.800000011920929,
                    0.800000011920929,
                    0.800000011920929,
                    1
                ],
                "metallicFactor" : 0,
                "roughnessFactor" : 0.19141913950443268
            }
        }
    ],
    "meshes" : [
        {
            "name" : "Suzanne",
            "primitives" : [
                {
                    "attributes" : {
                        "POSITION" : 0,
                        "NORMAL" : 1,
                        "TEXCOORD_0" : 2
                    },
                    "indices" : 3,
                    "material" : 0
                }
            ]
        },
        {
            "name" : "Sphere",
            "primitives" : [
                {
                    "attributes" : {
                        "POSITION" : 4,
                        "NORMAL" : 5,
                        "TEXCOORD_0" : 6
                    },
                    "indices" : 7,
                    "material" : 1
                },
                {
                    "attributes" : {
                        "POSITION" : 8,
                        "NORMAL" : 9,
                        "TEXCOORD_0" : 10
                    },
                    "indices" : 11,
                    "material" : 2
                },
                {
                    "attributes" : {
                        "POSITION" : 12,
                        "NORMAL" : 13,
                        "TEXCOORD_0" : 14
                    },
                    "indices" : 15,
                    "material" : 3
                }
            ]
        },
        {
            "name" : "Sphere.001",
            "primitives" : [
                {
                    "attributes" : {
                        "POSITION" : 16,
                        "NORMAL" : 17,
                        "TEXCOORD_0" : 18
                    },
                    "indices" : 19,
                    "material" : 4
                }
            ]
        }
    ],
    "accessors" : [
        {
            "bufferView" : 0,
            "componentType" : 5126,
            "count" : 58133,
            "max" : [
                0.16875378787517548,
                0.2194940596818924,
                0.1608085334300995
            ],
            "min" : [
                -0.16875378787517548,
                -0.23158212006092072,
                -0.13826368749141693
            ],
            "type" : "VEC3"
        },
        {
            "bufferView" : 1,
            "componentType" : 5126,
            "count" : 58133,
            "type" : "VEC3"
        },
        {
            "bufferView" : 2,
            "componentType" : 5126,
            "count" : 58133,
            "type" : "VEC2"
        },
        {
            "bufferView" : 3,
            "componentType" : 5123,
            "count" : 347328,
            "type" : "SCALAR"
        },
        {
            "bufferView" : 4,
            "componentType" : 5126,
            "count" : 3718,
            "max" : [
                0.0098723154515028,
                0.00997577141970396,
                0.009872316382825375
            ],
            "min" : [
                -0.0417696051299572,
                -0.008054982870817184,
                -0.009872311726212502
            ],
            "type" : "VEC3"
        },
        {
            "bufferView" : 5,
            "componentType" : 5126,
            "count" : 3718,
            "type" : "VEC3"
        },
        {
            "bufferView" : 6,
            "componentType" : 5126,
            "count" : 3718,
            "type" : "VEC2"
        },
        {
            "bufferView" : 7,
            "componentType" : 5123,
            "count" : 19584,
            "type" : "SCALAR"
        },
        {
            "bufferView" : 8,
            "componentType" : 5126,
            "count" : 1068,
            "max" : [
                0.002890797797590494,
                -0.006613113917410374,
                0.0028908008243888617
            ],
            "min" : [
                -0.034788090735673904,
                -0.007214960642158985,
                -0.0028907936066389084
            ],
            "type" : "VEC3"
        },
        {
            "bufferView" : 9,
            "componentType" : 5126,
            "count" : 1068,
            "type" : "VEC3"
        },
        {
            "bufferView" : 10,
            "componentType" : 5126,
            "count" : 1068,
            "type" : "VEC2"
        },
        {
            "bufferView" : 11,
            "componentType" : 5123,
            "count" : 4224,
            "type" : "SCALAR"
        },
        {
            "bufferView" : 12,
            "componentType" : 5126,
            "count" : 650,
            "max" : [
                0.005696697160601616,
                -0.007214958779513836,
                0.005696699023246765
            ],
            "min" : [
                -0.037593990564346313,
                -0.008148493245244026,
                -0.005696694832295179
            ],
            "type" : "VEC3"
        },
        {
            "bufferView" : 13,
            "componentType" : 5126,
            "count" : 650,
            "type" : "VEC3"
        },
        {
            "bufferView" : 14,
            "componentType" : 5126,
            "count" : 650,
            "type" : "VEC2"
        },
        {
            "bufferView" : 15,
            "componentType" : 5123,
            "count" : 3072,
            "type" : "SCALAR"
        },
        {
            "bufferView" : 16,
            "componentType" : 5126,
            "count" : 6566,
            "max" : [
                0.009872316382825375,
                0.0040016756393015385,
                0.009872283786535263
            ],
            "min" : [
                -0.0417696051299572,
                -0.011084511876106262,
                -0.009872348047792912
            ],
            "type" : "VEC3"
        },
        {
            "bufferView" : 17,
            "componentType" : 5126,
            "count" : 6566,
            "type" : "VEC3"
        },
        {
            "bufferView" : 18,
            "componentType" : 5126,
            "count" : 6566,
            "type" : "VEC2"
        },
        {
            "bufferView" : 19,
            "componentType" : 5123,
            "count" : 34560,
            "type" : "SCALAR"
        }
    ],
    "bufferViews" : [
        {
            "buffer" : 0,
            "byteLength" : 697596,
            "byteOffset" : 0
        },
        {
            "buffer" : 0,
            "byteLength" : 697596,
            "byteOffset" : 697596
        },
        {
            "buffer" : 0,
            "byteLength" : 465064,
            "byteOffset" : 1395192
        },
        {
            "buffer" : 0,
            "byteLength" : 694656,
            "byteOffset" : 1860256
        },
        {
            "buffer" : 0,
            "byteLength" : 44616,
            "byteOffset" : 2554912
        },
        {
            "buffer" : 0,
            "byteLength" : 44616,
            "byteOffset" : 2599528
        },
        {
            "buffer" : 0,
            "byteLength" : 29744,
            "byteOffset" : 2644144
        },
        {
            "buffer" : 0,
            "byteLength" : 39168,
            "byteOffset" : 2673888
        },
        {
            "buffer" : 0,
            "byteLength" : 12816,
            "byteOffset" : 2713056
        },
        {
            "buffer" : 0,
            "byteLength" : 12816,
            "byteOffset" : 2725872
        },
        {
            "buffer" : 0,
            "byteLength" : 8544,
            "byteOffset" : 2738688
        },
        {
            "buffer" : 0,
            "byteLength" : 8448,
            "byteOffset" : 2747232
        },
        {
            "buffer" : 0,
            "byteLength" : 7800,
            "byteOffset" : 2755680
        },
        {
            "buffer" : 0,
            "byteLength" : 7800,
            "byteOffset" : 2763480
        },
        {
            "buffer" : 0,
            "byteLength" : 5200,
            "byteOffset" : 2771280
        },
        {
            "buffer" : 0,
            "byteLength" : 6144,
            "byteOffset" : 2776480
        },
        {
            "buffer" : 0,
            "byteLength" : 78792,
            "byteOffset" : 2782624
        },
        {
            "buffer" : 0,
            "byteLength" : 78792,
            "byteOffset" : 2861416
        },
        {
            "buffer" : 0,
            "byteLength" : 52528,
            "byteOffset" : 2940208
        },
        {
            "buffer" : 0,
            "byteLength" : 69120,
            "byteOffset" : 2992736
        }
    ],
    "buffers" : [
        {
            "byteLength" : 3061856,
            "uri" : "Cartoon Head5.bin"
        }
    ]
}
